<?xml version="1.0" standalone="no"?>
<!DOCTYPE svg PUBLIC "-//W3C//DTD SVG 20010904//EN"
 "http://www.w3.org/TR/2001/REC-SVG-20010904/DTD/svg10.dtd">
<svg version="1.0" xmlns="http://www.w3.org/2000/svg"
 width="300.000000pt" height="300.000000pt" viewBox="0 0 300.000000 300.000000"
 preserveAspectRatio="xMidYMid meet">
<metadata>
Created by potrace 1.10, written by Peter Selinger 2001-2011
</metadata>
<g transform="translate(0.000000,300.000000) scale(0.100000,-0.100000)"
fill="#000000" stroke="none">
<path d="M861 2479 c-133 -26 -254 -81 -302 -138 -19 -23 -51 -61 -72 -86 -82
-94 -284 -683 -341 -990 -34 -188 -30 -338 14 -439 42 -98 154 -185 249 -193
65 -6 118 31 232 164 148 171 266 288 322 319 l52 29 485 0 485 0 54 -30 c53
-29 173 -150 333 -335 88 -102 155 -150 207 -150 52 0 150 50 195 100 152 169
135 467 -62 1050 -101 299 -150 414 -201 475 -25 30 -59 71 -74 90 -50 60
-217 127 -352 141 -54 5 -66 3 -119 -25 l-58 -31 -408 0 -408 0 -64 30 c-65
31 -92 34 -167 19z m155 -61 l59 -33 415 0 416 0 71 33 c70 32 74 33 135 22
95 -17 212 -58 257 -91 22 -16 51 -46 65 -66 13 -21 35 -49 50 -62 46 -43 216
-505 287 -778 87 -341 79 -568 -24 -681 -43 -46 -124 -92 -165 -92 -51 0 -109
51 -269 240 -110 130 -198 212 -263 246 l-55 29 -495 0 -495 0 -49 -24 c-62
-31 -155 -117 -264 -246 -165 -194 -222 -245 -274 -245 -62 1 -173 81 -209
153 -81 158 -51 425 98 882 91 280 170 472 213 519 21 23 45 55 54 73 27 53
141 108 286 138 92 19 92 19 156 -17z"/>
</g>
</svg>
